<svg width="1440" height="710" viewBox="0 0 1440 710" xmlns="http://www.w3.org/2000/svg" xmlns:xlink="http://www.w3.org/1999/xlink"><title>8BA90795-0676-434D-A5F6-FB6D3A9423C7</title><defs><path id="a" d="M.284.449h2.699v2.697H.284V.45z"/><path id="c" d="M.59.449H3.29v2.697H.591V.45z"/><path id="e" d="M.088.449h2.698v2.697H.088V.45z"/><path id="g" d="M.393.449h2.699v2.697H.393V.45z"/><path id="i" d="M.7.449h2.698v2.697H.7V.45z"/><path id="k" d="M.787.449h2.699v2.697H.787V.45z"/><path id="m" d="M.48.449h2.7v2.697H.48V.45z"/><path id="o" d="M.175.449h2.699v2.697H.175V.45z"/><path id="q" d="M.677.449h2.7v2.697h-2.7V.45z"/><path id="s" d="M.372.449H3.07v2.697H.372V.45z"/><path id="u" d="M2120.727 706.4v2.697H0V.45h2120.727v705.95h-2.699v2.698h2.699V706.4z"/></defs><g fill="none" fill-rule="evenodd" opacity=".604"><path stroke="#EBEBEB" stroke-width=".5" d="M648.763 425.728h141.201v-141.19h-141.2zM789.964 425.728h141.203v-141.19H789.964z"/><path stroke="#EBEBEB" stroke-width=".5" d="M931.167 425.728h141.2v-141.19h-141.2zM1072.368 425.728h141.202v-141.19h-141.202zM1213.57 425.728h141.202v-141.19H1213.57zM1354.772 425.728h141.202v-141.19h-141.202zM-57.247 425.728H83.954v-141.19h-141.2zM83.954 425.728h141.203v-141.19H83.954zM225.157 425.728h141.202v-141.19H225.157z"/><path stroke="#EBEBEB" stroke-width=".5" d="M366.359 425.728H507.56v-141.19H366.36zM507.56 425.728h141.203v-141.19H507.561zM648.763 284.538h141.201v-141.19h-141.2zM789.964 284.538h141.203v-141.19H789.964z"/><path stroke="#EBEBEB" stroke-width=".5" d="M931.167 284.538h141.2v-141.19h-141.2zM1072.368 284.538h141.202v-141.19h-141.202zM1213.57 284.538h141.202v-141.19H1213.57zM1354.772 284.538h141.202v-141.19h-141.202zM-57.247 284.538H83.954v-141.19h-141.2zM83.954 284.538h141.203v-141.19H83.954zM225.157 284.538h141.202v-141.19H225.157z"/><path stroke="#EBEBEB" stroke-width=".5" d="M366.359 284.538H507.56v-141.19H366.36zM507.56 284.538h141.203v-141.19H507.561zM648.763 143.348h141.201V2.158h-141.2zM789.964 143.348h141.203V2.158H789.964z"/><path stroke="#EBEBEB" stroke-width=".5" d="M931.167 143.348h141.2V2.158h-141.2zM1072.368 143.348h141.202V2.158h-141.202zM1213.57 143.348h141.202V2.158H1213.57zM1354.772 143.348h141.202V2.158h-141.202zM-57.247 143.348H83.954V2.158h-141.2zM83.954 143.348h141.203V2.158H83.954zM225.157 143.348h141.202V2.158H225.157z"/><path stroke="#EBEBEB" stroke-width=".5" d="M366.359 143.348H507.56V2.158H366.36zM507.56 143.348h141.203V2.158H507.561zM648.763 566.918h141.201v-141.19h-141.2zM789.964 566.918h141.203v-141.19H789.964z"/><path stroke="#EBEBEB" stroke-width=".5" d="M931.167 566.918h141.2v-141.19h-141.2zM1072.368 566.918h141.202v-141.19h-141.202zM1213.57 566.918h141.202v-141.19H1213.57zM1354.772 566.918h141.202v-141.19h-141.202zM-57.247 566.918H83.954v-141.19h-141.2zM83.954 566.918h141.203v-141.19H83.954zM225.157 566.918h141.202v-141.19H225.157z"/><path stroke="#EBEBEB" stroke-width=".5" d="M366.359 566.918H507.56v-141.19H366.36zM507.56 566.918h141.203v-141.19H507.561zM648.763 708.108h141.201v-141.19h-141.2zM789.964 708.108h141.203v-141.19H789.964z"/><path stroke="#EBEBEB" stroke-width=".5" d="M931.167 708.108h141.2v-141.19h-141.2zM1072.368 708.108h141.202v-141.19h-141.202zM1213.57 708.108h141.202v-141.19H1213.57zM1354.772 708.108h141.202v-141.19h-141.202zM-57.247 708.108H83.954v-141.19h-141.2zM83.954 708.108h141.203v-141.19H83.954zM225.157 708.108h141.202v-141.19H225.157z"/><path stroke="#EBEBEB" stroke-width=".5" d="M366.359 708.108H507.56v-141.19H366.36zM507.56 708.108h141.203v-141.19H507.561zM1778.377 355.133H-339.65M719.363 708.108V2.158M578.161 708.108V2.158M436.96 708.108V2.158M295.758 708.108V2.158M154.556 708.108V2.158M13.354 708.108V2.158M860.566 708.108V2.158M1001.767 708.108V2.158M1142.97 708.108V2.158M1284.17 708.108V2.158M1425.373 708.108V2.158M1778.377 496.323H-339.65M1778.377 637.513H-339.65M1778.377 213.943H-339.65M1778.377 72.752H-339.65"/><path d="M650.111 284.538a1.349 1.349 0 1 1-2.697 0 1.349 1.349 0 0 1 2.697 0M508.91 284.538a1.35 1.35 0 1 1-2.698-.001 1.35 1.35 0 0 1 2.698 0M367.708 284.538a1.349 1.349 0 1 1-2.698 0 1.349 1.349 0 0 1 2.698 0M226.506 284.538a1.348 1.348 0 1 1-2.697 0 1.348 1.348 0 0 1 2.697 0M85.304 284.538a1.35 1.35 0 1 1-2.698-.001 1.35 1.35 0 0 1 2.698 0M791.314 284.538a1.35 1.35 0 1 1-2.699-.001 1.35 1.35 0 0 1 2.699 0M932.515 284.538a1.349 1.349 0 1 1-2.698 0 1.349 1.349 0 0 1 2.698 0M1073.717 284.538a1.35 1.35 0 1 1-2.698-.001 1.35 1.35 0 0 1 2.698 0M1214.92 284.538a1.35 1.35 0 1 1-2.699-.001 1.35 1.35 0 0 1 2.699 0M1356.12 284.538a1.349 1.349 0 1 1-2.697 0 1.349 1.349 0 0 1 2.698 0M650.111 143.347a1.35 1.35 0 1 1-2.698 0 1.35 1.35 0 0 1 2.698 0M508.91 143.347a1.35 1.35 0 1 1-2.699 0 1.35 1.35 0 0 1 2.699 0M367.708 143.347a1.35 1.35 0 1 1-2.698 0 1.35 1.35 0 0 1 2.698 0M226.506 143.347a1.349 1.349 0 1 1-2.698.002 1.349 1.349 0 0 1 2.698-.002M85.304 143.347a1.35 1.35 0 1 1-2.698 0 1.35 1.35 0 0 1 2.698 0M791.314 143.347a1.35 1.35 0 1 1-2.699 0 1.35 1.35 0 0 1 2.699 0M932.515 143.347a1.35 1.35 0 1 1-2.698 0 1.35 1.35 0 0 1 2.698 0M1073.717 143.347a1.35 1.35 0 1 1-2.698 0 1.35 1.35 0 0 1 2.698 0M1214.92 143.347a1.35 1.35 0 1 1-2.7 0 1.35 1.35 0 0 1 2.7 0M1356.12 143.347a1.35 1.35 0 1 1-2.697 0 1.35 1.35 0 0 1 2.698 0" fill="#EBEBEB"/><g transform="translate(647.129 .36)"><mask id="b" fill="#fff"><use xlink:href="#a"/></mask><path d="M2.983 1.798a1.349 1.349 0 1 1-2.698 0 1.349 1.349 0 0 1 2.698 0" fill="#EBEBEB" mask="url(#b)"/></g><g transform="translate(505.621 .36)"><mask id="d" fill="#fff"><use xlink:href="#c"/></mask><path d="M3.289 1.798a1.35 1.35 0 1 1-2.698-.001 1.35 1.35 0 0 1 2.698 0" fill="#EBEBEB" mask="url(#d)"/></g><g transform="translate(364.922 .36)"><mask id="f" fill="#fff"><use xlink:href="#e"/></mask><path d="M2.786 1.798a1.349 1.349 0 1 1-2.698 0 1.349 1.349 0 0 1 2.698 0" fill="#EBEBEB" mask="url(#f)"/></g><g transform="translate(223.414 .36)"><mask id="h" fill="#fff"><use xlink:href="#g"/></mask><path d="M3.092 1.798a1.348 1.348 0 1 1-2.697 0 1.348 1.348 0 0 1 2.697 0" fill="#EBEBEB" mask="url(#h)"/></g><g transform="translate(81.906 .36)"><mask id="j" fill="#fff"><use xlink:href="#i"/></mask><path d="M3.398 1.798A1.35 1.35 0 1 1 .7 1.797a1.35 1.35 0 0 1 2.698 0" fill="#EBEBEB" mask="url(#j)"/></g><g transform="translate(787.828 .36)"><mask id="l" fill="#fff"><use xlink:href="#k"/></mask><path d="M3.486 1.798a1.35 1.35 0 1 1-2.699-.001 1.35 1.35 0 0 1 2.699 0" fill="#EBEBEB" mask="url(#l)"/></g><g transform="translate(929.336 .36)"><mask id="n" fill="#fff"><use xlink:href="#m"/></mask><path d="M3.18 1.798a1.349 1.349 0 1 1-2.699 0 1.349 1.349 0 0 1 2.698 0" fill="#EBEBEB" mask="url(#n)"/></g><g transform="translate(1070.844 .36)"><mask id="p" fill="#fff"><use xlink:href="#o"/></mask><path d="M2.874 1.798a1.35 1.35 0 1 1-2.699-.001 1.35 1.35 0 0 1 2.699 0" fill="#EBEBEB" mask="url(#p)"/></g><g transform="translate(1211.543 .36)"><mask id="r" fill="#fff"><use xlink:href="#q"/></mask><path d="M3.377 1.798a1.35 1.35 0 1 1-2.699-.001 1.35 1.35 0 0 1 2.699 0" fill="#EBEBEB" mask="url(#r)"/></g><g transform="translate(1353.05 .36)"><mask id="t" fill="#fff"><use xlink:href="#s"/></mask><path d="M3.07 1.798a1.349 1.349 0 1 1-2.698 0 1.349 1.349 0 0 1 2.698 0" fill="#EBEBEB" mask="url(#t)"/></g><path d="M650.111 425.727a1.35 1.35 0 1 1-2.698.001 1.35 1.35 0 0 1 2.698 0M508.91 425.727a1.35 1.35 0 1 1-2.699 0 1.35 1.35 0 0 1 2.699 0M367.708 425.727a1.35 1.35 0 1 1-2.698.001 1.35 1.35 0 0 1 2.698 0M226.506 425.727a1.349 1.349 0 1 1-2.698.002 1.349 1.349 0 0 1 2.698-.002M85.304 425.727a1.35 1.35 0 1 1-2.698 0 1.35 1.35 0 0 1 2.698 0M791.314 425.727a1.35 1.35 0 1 1-2.699 0 1.35 1.35 0 0 1 2.699 0M932.515 425.727a1.35 1.35 0 1 1-2.698.001 1.35 1.35 0 0 1 2.698 0M1073.717 425.727a1.35 1.35 0 1 1-2.698 0 1.35 1.35 0 0 1 2.698 0M1214.92 425.727a1.35 1.35 0 1 1-2.7 0 1.35 1.35 0 0 1 2.7 0M1356.12 425.727a1.35 1.35 0 1 1-2.697.001 1.35 1.35 0 0 1 2.698 0M650.111 566.918a1.35 1.35 0 1 1-2.698 0 1.35 1.35 0 0 1 2.698 0M508.91 566.918a1.35 1.35 0 1 1-2.699 0 1.35 1.35 0 0 1 2.699 0M367.708 566.918a1.35 1.35 0 1 1-2.698 0 1.35 1.35 0 0 1 2.698 0M226.506 566.918a1.349 1.349 0 1 1-2.698.002 1.349 1.349 0 0 1 2.698-.002M85.304 566.918a1.35 1.35 0 1 1-2.698 0 1.35 1.35 0 0 1 2.698 0M791.314 566.918a1.35 1.35 0 1 1-2.699 0 1.35 1.35 0 0 1 2.699 0M932.515 566.918a1.35 1.35 0 1 1-2.698 0 1.35 1.35 0 0 1 2.698 0M1073.717 566.918a1.35 1.35 0 1 1-2.698 0 1.35 1.35 0 0 1 2.698 0M1214.92 566.918a1.35 1.35 0 1 1-2.7 0 1.35 1.35 0 0 1 2.7 0M1356.12 566.918a1.35 1.35 0 1 1-2.697 0 1.35 1.35 0 0 1 2.698 0M650.111 708.108a1.349 1.349 0 1 1-2.697 0 1.349 1.349 0 0 1 2.697 0M508.91 708.108a1.35 1.35 0 1 1-2.698 0 1.35 1.35 0 0 1 2.698 0M367.708 708.108a1.349 1.349 0 1 1-2.698 0 1.349 1.349 0 0 1 2.698 0M226.506 708.108a1.348 1.348 0 1 1-2.697 0 1.348 1.348 0 0 1 2.697 0M85.304 708.108a1.35 1.35 0 1 1-2.698 0 1.35 1.35 0 0 1 2.698 0M791.314 708.108a1.35 1.35 0 1 1-2.699 0 1.35 1.35 0 0 1 2.699 0M932.515 708.108a1.349 1.349 0 1 1-2.698 0 1.349 1.349 0 0 1 2.698 0M1073.717 708.108a1.35 1.35 0 1 1-2.698 0 1.35 1.35 0 0 1 2.698 0M1214.92 708.108a1.35 1.35 0 1 1-2.699 0 1.35 1.35 0 0 1 2.699 0M1356.12 708.108a1.349 1.349 0 1 1-2.697 0 1.349 1.349 0 0 1 2.698 0" fill="#EBEBEB"/></g></svg>