<?xml version="1.0" encoding="utf-8"?>
<!-- Generator: Adobe Illustrator 22.1.0, SVG Export Plug-In . SVG Version: 6.00 Build 0)  -->
<svg version="1.1" id="Layer_1" xmlns="http://www.w3.org/2000/svg" xmlns:xlink="http://www.w3.org/1999/xlink" x="0px" y="0px"
	 viewBox="0 0 751.6 300" style="enable-background:new 0 0 751.6 300;" xml:space="preserve">
<style type="text/css">
	.st0{fill:#FF6C37;}
	.st1{fill:#FFFFFF;}
</style>
<title>pm-logo-horiz</title>
<g>
	<path class="st0" d="M275,166.6v-57.9c0-0.7,0.3-1.3,0.8-1.8c0.6-0.5,1.3-0.8,2.1-0.7h16.3c4.8-0.2,9.6,1.4,13.3,4.5
		c3.3,3,5,7.7,5,14.1v0.8c0,6.4-1.7,11.2-5.1,14.2c-3.8,3.1-8.6,4.8-13.5,4.5h-11.6v22.3c0,0.8-0.4,1.5-1.1,1.9
		c-1.6,0.9-3.5,0.9-5.1,0C275.4,168.1,275,167.4,275,166.6z M282.2,138.3h11.7c3.1,0.2,6.2-0.9,8.4-3.1c2.2-2.5,3.3-5.8,3-9.2V125
		c0.3-3.3-0.8-6.6-3-9.2c-2.3-2.1-5.3-3.2-8.4-3h-11.6L282.2,138.3z"/>
	<path class="st0" d="M337.7,150.9V125c0-6.5,1.7-11.2,5-14.2c8-6,19-6,27,0c3.4,3,5.1,7.8,5.1,14.2v25.9c0,6.5-1.7,11.2-5.1,14.2
		c-8,6.1-19,6.1-27,0C339.4,162.1,337.7,157.4,337.7,150.9z M345,150.9c0,8.1,3.7,12.2,11.3,12.2c3.1,0.2,6.1-0.9,8.4-3
		c2.2-2.5,3.2-5.8,3-9.2v-26c0.3-3.3-0.8-6.6-3-9.2c-2.3-2.1-5.3-3.2-8.4-3c-7.5,0-11.2,4-11.2,12.2L345,150.9z"/>
	<path class="st0" d="M400.4,160.3c0-1,0.4-1.9,1-2.7c0.5-0.7,1.2-1.2,2.1-1.3c0.8,0.1,1.5,0.5,2,1.1c0.8,0.7,1.6,1.5,2.5,2.4
		c1.2,1.1,2.6,1.9,4.1,2.4c2,0.8,4.2,1.1,6.3,1.1c3.2,0.2,6.3-0.8,8.8-2.7c2.2-2,3.4-5,3.2-8c0.1-2.9-0.9-5.6-2.9-7.7
		c-2-2-4.4-3.5-7.1-4.5c-2.8-1-5.5-2.1-8.4-3.3c-2.8-1.2-5.2-3-7.1-5.4c-2-2.7-3.1-6-2.9-9.4c-0.1-2.7,0.5-5.4,1.7-7.9
		c1-2.1,2.6-3.8,4.6-5c1.9-1.1,3.9-1.9,6-2.5c2.2-0.5,4.4-0.8,6.6-0.8c3.5,0,6.9,0.5,10.2,1.5c3.2,1.1,4.9,2.5,4.9,4.2
		c0,0.9-0.3,1.8-0.9,2.6c-0.4,0.8-1.3,1.4-2.2,1.4c-1.3-0.4-2.6-0.9-3.9-1.5c-2.5-1.1-5.2-1.7-8-1.6c-2.9-0.1-5.9,0.6-8.4,2.1
		c-2.2,1.5-3.4,4.1-3.2,6.8c-0.1,2.5,0.9,4.9,2.8,6.5c2.1,1.7,4.5,3.1,7.1,3.9c2.8,1,5.6,2.1,8.4,3.4c2.8,1.4,5.2,3.5,7,6.1
		c2,3.2,3,6.9,2.9,10.7c0,5.9-1.7,10.4-5.2,13.4c-3.8,3.2-8.7,4.8-13.7,4.5c-4.5,0.1-9-1-12.9-3.2
		C402.2,164.5,400.4,162.4,400.4,160.3z"/>
	<path class="st0" d="M459.1,109.4c0-0.8,0.2-1.6,0.7-2.2c0.4-0.7,1.1-1,1.9-1h35c0.8,0,1.5,0.3,1.9,1c0.5,0.6,0.7,1.4,0.7,2.2
		c0,0.8-0.2,1.7-0.7,2.4c-0.4,0.7-1.1,1-1.9,1H483v53.8c0,0.8-0.4,1.5-1.1,1.9c-1.6,0.9-3.5,0.9-5.1,0c-0.7-0.4-1.1-1.1-1.1-1.9
		v-53.8h-13.9c-0.8,0-1.5-0.3-1.9-1C459.4,111.1,459.1,110.3,459.1,109.4z"/>
	<path class="st0" d="M523.9,166.6v-56.7c-0.3-1.7,0.9-3.3,2.6-3.6c0.4-0.1,0.8-0.1,1.1,0c2.3,0,4.2,1.5,5.8,4.6l13.5,25.9
		l13.6-25.9c1.7-3,3.6-4.6,5.8-4.6c1.7-0.3,3.3,0.9,3.6,2.6c0,0,0,0,0,0l0,0c0.1,0.3,0.1,0.6,0,0.9v56.7c0,0.8-0.4,1.5-1.1,1.9
		c-1.6,0.9-3.5,0.9-5.1,0c-0.7-0.4-1.1-1.1-1.1-1.9v-45.1l-13,24.4c-0.4,1.2-1.5,2.1-2.8,2.1c-1.2-0.1-2.3-0.9-2.7-2.1l-13-24.9
		v45.6c0,0.8-0.4,1.5-1.1,1.9c-0.7,0.5-1.6,0.8-2.4,0.8c-0.9,0-1.8-0.2-2.5-0.7C524.3,168.2,523.8,167.4,523.9,166.6z"/>
	<path class="st0" d="M594.6,166.2c0-0.2,0.1-0.5,0.2-0.7l17.6-56.7c0.5-1.7,2-2.5,4.4-2.5s3.9,0.8,4.4,2.5l17.7,57
		c0,0.1,0,0.2,0,0.3c0,0.1,0,0.2,0,0.2c0,0.9-0.6,1.7-1.4,2.1c-0.9,0.6-2,0.9-3.2,0.8c-1.1,0.1-2.2-0.5-2.6-1.6l-3.8-12.6h-22.6
		l-3.8,12.6c-0.3,1.1-1.5,1.8-2.6,1.7c-1,0-2-0.3-2.9-0.9C595.1,168,594.6,167.2,594.6,166.2z M607.1,149h19.3l-9.6-32.2L607.1,149z
		"/>
	<path class="st0" d="M663.8,166.6v-57.9c0-1.7,1.2-2.5,3.6-2.5c1.1,0,2.2,0.4,3.1,1.1c1,1,1.9,2.2,2.4,3.5l21.5,42v-44.1
		c0-0.8,0.4-1.5,1.1-1.8c1.6-0.9,3.5-0.9,5.1,0c0.7,0.4,1.1,1.1,1.1,1.8v57.9c0,0.8-0.4,1.5-1.1,1.9c-0.8,0.5-1.6,0.7-2.5,0.7
		c-2-0.1-3.8-1.4-4.5-3.3L671,122.6v44c0,0.8-0.4,1.5-1,1.9c-1.6,0.9-3.5,0.9-5.1,0C664.2,168.1,663.8,167.4,663.8,166.6z"/>
</g>
<path class="st0" d="M241.7,150.7c7-54.8-31.7-104.9-86.4-111.9S50.3,70.5,43.3,125.2S75,230.1,129.7,237.2c0,0,0,0,0,0
	C184.5,244.2,234.6,205.5,241.7,150.7z"/>
<path class="st1" d="M178.6,102.2l-42.2,42.2l-11.9-11.9C166,91,170.1,94.6,178.6,102.2z"/>
<path class="st0" d="M136.4,145.4L136.4,145.4c-0.3,0-0.5-0.1-0.7-0.3l-12-11.9c-0.4-0.4-0.4-1,0-1.4c0,0,0,0,0,0
	c42.2-42.2,46.6-38.2,55.5-30.2c0.2,0.2,0.3,0.4,0.3,0.7c0,0.3-0.1,0.5-0.3,0.7L137,145.1C136.9,145.3,136.6,145.4,136.4,145.4z
	 M125.9,132.5l10.5,10.5l40.7-40.7C169.7,95.7,164.7,93.7,125.9,132.5z"/>
<path class="st1" d="M148.5,156.5L137,145l42.2-42.2C190.5,114.2,173.6,132.7,148.5,156.5z"/>
<path class="st0" d="M148.5,157.5L148.5,157.5c-0.3,0-0.5-0.1-0.7-0.3l-11.5-11.5c-0.2-0.2-0.2-0.4-0.2-0.7c0-0.3,0.1-0.5,0.3-0.7
	l42.2-42.2c0.4-0.4,1-0.4,1.4,0c2.6,2.4,4,5.8,3.9,9.3c-0.2,11.1-12.8,25.2-34.6,45.8C149,157.4,148.7,157.5,148.5,157.5z
	 M138.4,145c6.4,6.5,9.1,9.1,10.1,10.1c16.8-16,33.1-32.4,33.2-43.7c0.1-2.6-0.9-5.2-2.6-7.2L138.4,145z"/>
<path class="st1" d="M124.7,132.8l8.5,8.5c0.2,0.2,0.2,0.4,0,0.6c-0.1,0.1-0.1,0.1-0.2,0.1l-17.6,3.8c-0.9,0.1-1.7-0.5-1.9-1.4
	c-0.1-0.5,0.1-1,0.4-1.3l10.2-10.2C124.3,132.7,124.6,132.6,124.7,132.8z"/>
<path class="st0" d="M115.1,146.8c-1.5,0-2.6-1.2-2.6-2.7c0-0.7,0.3-1.4,0.8-1.9l10.2-10.2c0.6-0.5,1.4-0.5,2,0l8.5,8.5
	c0.6,0.5,0.6,1.4,0,2c-0.2,0.2-0.4,0.3-0.7,0.4l-17.6,3.8C115.5,146.7,115.3,146.8,115.1,146.8z M124.4,133.9l-9.8,9.8
	c-0.2,0.2-0.3,0.5-0.1,0.8c0.1,0.3,0.4,0.4,0.7,0.3l16.5-3.6L124.4,133.9z"/>
<path class="st1" d="M200.9,78.8c-6.4-6.2-16.7-6-22.9,0.5s-6,16.7,0.5,22.9c5.3,5.1,13.3,6,19.6,2.2L186.7,93L200.9,78.8z"/>
<path class="st0" d="M189.7,107.7c-9.5,0-17.2-7.7-17.2-17.2c0-9.5,7.7-17.2,17.2-17.2c4.4,0,8.7,1.7,11.9,4.8
	c0.2,0.2,0.3,0.4,0.3,0.7c0,0.3-0.1,0.5-0.3,0.7L188.1,93l10.6,10.6c0.4,0.4,0.4,1,0,1.4c-0.1,0.1-0.1,0.1-0.2,0.2
	C195.9,106.8,192.8,107.7,189.7,107.7z M189.7,75.4c-8.4,0-15.2,6.8-15.1,15.2c0,8.4,6.8,15.2,15.2,15.1c2.3,0,4.6-0.5,6.7-1.6
	L186,93.7c-0.2-0.2-0.3-0.4-0.3-0.7c0-0.3,0.1-0.5,0.3-0.7l13.4-13.4C196.7,76.6,193.3,75.4,189.7,75.4L189.7,75.4z"/>
<path class="st1" d="M201.2,79.1l-0.2-0.2L186.7,93l11.3,11.3c1.1-0.7,2.2-1.5,3.1-2.4C207.5,95.6,207.5,85.4,201.2,79.1z"/>
<path class="st0" d="M198.1,105.4c-0.3,0-0.5-0.1-0.7-0.3L186,93.7c-0.2-0.2-0.3-0.4-0.3-0.7c0-0.3,0.1-0.5,0.3-0.7l14.2-14.2
	c0.4-0.4,1-0.4,1.4,0l0.3,0.2c6.7,6.7,6.7,17.5,0.1,24.3c-1,1-2.1,1.9-3.3,2.6C198.4,105.3,198.2,105.4,198.1,105.4z M188.1,93
	l10.1,10.1c0.8-0.5,1.6-1.2,2.2-1.8c5.7-5.7,6-15,0.5-21L188.1,93z"/>
<path class="st1" d="M180.3,104L180.3,104c-2.4-2.4-6.3-2.4-8.7,0l-37.7,37.7l6.3,6.3l39.9-35c2.6-2.2,2.8-6.1,0.6-8.7
	C180.5,104.2,180.4,104.1,180.3,104z"/>
<path class="st0" d="M140.1,149c-0.3,0-0.5-0.1-0.7-0.3l-6.3-6.3c-0.4-0.4-0.4-1,0-1.4c0,0,0,0,0,0l37.7-37.7
	c2.8-2.8,7.3-2.8,10.1,0l0,0c2.8,2.8,2.8,7.3,0,10.1c-0.1,0.1-0.2,0.2-0.3,0.3l-39.9,35C140.6,148.9,140.4,149,140.1,149z
	 M135.3,141.7l4.9,4.9l39.2-34.4c2.2-1.8,2.4-5.1,0.6-7.3s-5.1-2.4-7.3-0.6c-0.1,0.1-0.2,0.2-0.4,0.3L135.3,141.7z"/>
<path class="st1" d="M105,184.6c-0.4,0.2-0.6,0.6-0.5,1l1.7,7.2c0.4,1-0.2,2.2-1.3,2.5c-0.8,0.3-1.7,0-2.2-0.6l-11-10.9l35.9-35.9
	l12.4,0.2l8.4,8.4C146.4,158.2,134.3,169.9,105,184.6z"/>
<path class="st0" d="M104.2,196.3c-0.8,0-1.6-0.3-2.1-0.9l-10.9-10.9c-0.2-0.2-0.3-0.4-0.3-0.7c0-0.3,0.1-0.5,0.3-0.7l35.9-35.9
	c0.2-0.2,0.5-0.3,0.7-0.3l12.4,0.2c0.3,0,0.5,0.1,0.7,0.3l8.4,8.4c0.2,0.2,0.3,0.5,0.3,0.8c0,0.3-0.1,0.5-0.4,0.7l-0.7,0.6
	c-10.6,9.3-25,18.6-42.9,27.5l1.7,7.1c0.3,1.3-0.3,2.7-1.5,3.4C105.2,196.2,104.7,196.3,104.2,196.3z M93.2,183.8l10.3,10.2
	c0.3,0.5,0.9,0.7,1.4,0.4c0.5-0.3,0.7-0.9,0.4-1.4l-1.7-7.2c-0.2-0.9,0.2-1.7,1-2.1l0,0c17.7-8.9,32-18.1,42.5-27.2l-7.4-7.4
	l-11.5-0.2L93.2,183.8z"/>
<path class="st1" d="M83.2,192.4l8.6-8.6l12.8,12.8l-20.4-1.4c-0.9-0.1-1.5-0.9-1.4-1.8C82.8,193,82.9,192.6,83.2,192.4z"/>
<path class="st0" d="M104.6,197.5L104.6,197.5l-20.5-1.4c-1.5-0.1-2.5-1.4-2.4-2.9c0.1-0.6,0.3-1.2,0.8-1.6l8.6-8.6
	c0.4-0.4,1-0.4,1.4,0c0,0,0,0,0,0l12.8,12.8c0.3,0.3,0.4,0.7,0.2,1.1C105.3,197.3,105,197.5,104.6,197.5z M91.8,185.2l-7.9,7.9
	c-0.3,0.2-0.3,0.7,0,0.9c0.1,0.1,0.2,0.2,0.4,0.2l17.7,1.2L91.8,185.2z"/>
<path class="st0" d="M124.1,152.5c-0.6,0-1-0.5-1-1c0-0.3,0.1-0.5,0.3-0.7l9.7-9.7c0.4-0.4,1-0.4,1.4,0l6.3,6.3
	c0.3,0.3,0.4,0.6,0.3,1c-0.1,0.3-0.4,0.6-0.8,0.7l-16,3.4C124.2,152.5,124.1,152.5,124.1,152.5z M133.8,143.2l-6.6,6.6l10.8-2.3
	L133.8,143.2z"/>
<path class="st1" d="M140,148.1l-11,2.4c-0.8,0.2-1.6-0.3-1.8-1.1c-0.1-0.5,0-1,0.4-1.4l6.1-6.1L140,148.1z"/>
<path class="st0" d="M128.8,151.5c-1.4,0-2.5-1.1-2.5-2.5c0-0.7,0.3-1.3,0.7-1.8l6.1-6.1c0.4-0.4,1-0.4,1.4,0l6.3,6.3
	c0.3,0.3,0.4,0.6,0.3,1c-0.1,0.3-0.4,0.6-0.8,0.7l-11,2.4C129.1,151.5,128.9,151.5,128.8,151.5z M133.8,143.2l-5.4,5.4
	c-0.2,0.2-0.2,0.4-0.1,0.6c0.1,0.2,0.3,0.3,0.6,0.3l9.2-2L133.8,143.2z"/>
<path class="st0" d="M201.3,88.7c-0.2-0.6-0.9-0.9-1.5-0.7c-0.6,0.2-0.9,0.9-0.7,1.5c0,0.1,0.1,0.2,0.1,0.3c0.6,1.2,0.4,2.7-0.4,3.8
	c-0.4,0.5-0.3,1.2,0.1,1.6c0.5,0.4,1.2,0.3,1.6-0.2C202,93.1,202.3,90.7,201.3,88.7z"/>
</svg>
