<svg width="78" height="79" viewBox="0 0 78 79" xmlns="http://www.w3.org/2000/svg"><title>3343CE18-189A-45AA-96A0-2DEF8A5FCA81</title><g fill="none" fill-rule="evenodd"><path stroke="#222" stroke-width="3" fill="#FFF" d="M2.315 76.997h73.52V2.32H2.315z"/><path d="M21.859 28.449H17.57c-.172 0-.296-.04-.373-.118-.077-.078-.116-.204-.116-.379V26.34c0-.174.039-.3.116-.38.077-.077.201-.116.373-.116h3.65c.119 0 .207-.039.265-.118a.455.455 0 0 0 .089-.282c0-.156-.03-.271-.089-.345-.058-.073-.146-.114-.264-.124l-2.036-.29c-.633-.091-1.142-.303-1.527-.634-.384-.33-.577-.882-.577-1.654V20.95c0-.781.249-1.381.747-1.8.498-.417 1.185-.627 2.062-.627h3.801c.172 0 .296.04.373.117.077.079.116.205.116.38v1.64c0 .175-.039.301-.116.38-.077.077-.201.116-.373.116h-3.162a.33.33 0 0 0-.272.118.454.454 0 0 0-.095.296c0 .12.032.22.095.303a.36.36 0 0 0 .272.138l2.022.276c.633.092 1.145.303 1.534.634s.584.882.584 1.655v1.447c0 .781-.252 1.381-.754 1.8-.502.418-1.188.627-2.056.627M29.201 21.1v2.082h1.222c.262 0 .434-.069.516-.206a.905.905 0 0 0 .122-.47v-.73c0-.175-.04-.33-.122-.47-.082-.137-.254-.206-.516-.206H29.2zm-.461 7.348h-2.104c-.172 0-.296-.039-.373-.117-.077-.078-.115-.204-.115-.379V19.02c0-.175.038-.301.115-.38.077-.077.201-.117.373-.117h4.153c1.23 0 2.072.249 2.525.745.452.496.679 1.144.679 1.944v1.765c0 .799-.227 1.447-.68 1.943-.452.496-1.293.745-2.524.745h-1.56v2.288c0 .175-.039.301-.116.38-.077.077-.2.116-.373.116zM38.81 21.417l-.637 2.096h2.13l-.637-2.096a.533.533 0 0 0-.115-.179.207.207 0 0 0-.143-.055h-.34a.207.207 0 0 0-.142.055.526.526 0 0 0-.115.18zm-.773 6.535c0 .175-.039.301-.115.38-.077.077-.202.116-.374.116h-1.995c-.172 0-.296-.039-.373-.117-.077-.078-.115-.204-.115-.379v-3.64c0-.275.042-.592.128-.951.087-.358.22-.776.401-1.254l1.18-3.13a.646.646 0 0 1 .252-.345.798.798 0 0 1 .441-.11h3.651c.172 0 .314.037.428.11a.648.648 0 0 1 .25.346l1.181 3.129c.182.478.315.896.4 1.254.087.359.13.676.13.952v3.64c0 .174-.039.3-.115.378-.077.078-.202.117-.374.117h-2.05c-.18 0-.314-.039-.4-.117-.086-.078-.128-.204-.128-.379v-1.93h-2.403v1.93zM51.677 28.449h-3.311c-1.131 0-1.971-.23-2.518-.69-.548-.46-.821-1.167-.821-2.123v-4.288c0-.955.273-1.665.821-2.13.547-.463 1.387-.696 2.518-.696h3.311c.172 0 .297.04.374.117.076.079.115.205.115.38v1.668c0 .175-.039.3-.115.379-.077.078-.202.117-.374.117H48.95c-.28 0-.488.058-.624.173-.136.115-.204.287-.204.516v3.282c0 .23.068.397.204.503.136.106.344.158.624.158h2.728c.172 0 .297.04.374.117.076.079.115.205.115.38v1.64c0 .175-.039.301-.115.38-.077.077-.202.117-.374.117M60.486 28.449h-6.298c-.172 0-.296-.04-.373-.118-.077-.078-.115-.204-.115-.379V19.02c0-.175.038-.301.115-.38.077-.077.201-.117.373-.117h6.298c.172 0 .296.04.374.117.076.079.114.205.114.38v1.613c0 .174-.038.3-.114.379-.078.078-.202.117-.374.117H56.74v1.062h2.647c.171 0 .296.039.373.117.077.078.115.204.115.379v1.475c0 .175-.038.301-.115.379-.077.078-.202.117-.373.117H56.74v1.186h3.746c.172 0 .296.039.374.117.076.078.114.205.114.38v1.612c0 .175-.038.301-.114.38-.078.077-.202.117-.374.117M20.868 37.96l-.638 2.097h2.13l-.637-2.096a.544.544 0 0 0-.115-.18.208.208 0 0 0-.143-.055h-.34a.208.208 0 0 0-.142.056.538.538 0 0 0-.115.179zm-.774 6.536c0 .174-.038.3-.115.378-.077.079-.202.118-.373.118H17.61c-.172 0-.297-.039-.374-.118-.077-.077-.115-.204-.115-.378v-3.64c0-.276.042-.593.129-.951.086-.359.22-.777.4-1.255l1.181-3.13a.648.648 0 0 1 .251-.344.802.802 0 0 1 .442-.11h3.65c.172 0 .314.037.428.11a.65.65 0 0 1 .25.345l1.182 3.13c.18.477.314.895.4 1.254.086.358.129.675.129.951v3.64c0 .174-.039.3-.115.378-.077.079-.202.118-.374.118h-2.049c-.181 0-.314-.039-.4-.118-.086-.077-.13-.204-.13-.378v-1.93h-2.402v1.93zM30.287 37.644v2.082h1.221c.263 0 .435-.07.516-.207a.904.904 0 0 0 .123-.47v-.73a.904.904 0 0 0-.123-.468c-.081-.138-.253-.207-.516-.207h-1.221zm-.462 7.348h-2.103c-.172 0-.297-.04-.373-.117-.077-.078-.116-.205-.116-.38v-8.933c0-.174.039-.3.116-.379.076-.078.2-.117.373-.117h4.153c1.23 0 2.072.248 2.524.745.453.496.68 1.144.68 1.943v1.765c0 .8-.227 1.447-.68 1.943-.452.497-1.294.745-2.524.745h-1.561v2.289c0 .174-.038.3-.115.379-.077.078-.201.117-.374.117zM39.544 37.644v2.082h1.221c.262 0 .434-.07.516-.207a.904.904 0 0 0 .122-.47v-.73a.904.904 0 0 0-.122-.468c-.082-.138-.254-.207-.516-.207h-1.221zm-.462 7.348h-2.104c-.172 0-.296-.04-.373-.117-.077-.078-.115-.205-.115-.38v-8.933c0-.174.038-.3.115-.379.077-.078.201-.117.373-.117h4.154c1.23 0 2.072.248 2.524.745.452.496.68 1.144.68 1.943v1.765c0 .8-.228 1.447-.68 1.943-.452.497-1.294.745-2.524.745H39.57v2.289c0 .174-.038.3-.115.379-.077.078-.2.117-.373.117zM50.28 44.992h-4.29c-.171 0-.296-.039-.373-.117-.077-.078-.115-.205-.115-.38v-1.612c0-.175.038-.302.115-.38.077-.077.202-.117.373-.117h3.651c.118 0 .206-.039.265-.117a.456.456 0 0 0 .088-.282c0-.156-.03-.271-.088-.345-.059-.074-.147-.115-.265-.124l-2.036-.29c-.633-.091-1.142-.303-1.526-.634-.385-.33-.577-.882-.577-1.654v-1.448c0-.781.248-1.38.746-1.799.498-.418 1.185-.627 2.063-.627h3.8c.172 0 .296.039.374.117.077.078.115.205.115.379v1.64c0 .176-.038.302-.115.38-.078.078-.202.117-.374.117H48.95a.33.33 0 0 0-.271.117.456.456 0 0 0-.095.297c0 .12.031.22.095.303a.36.36 0 0 0 .271.138l2.022.276c.633.091 1.145.303 1.534.634.39.33.584.882.584 1.654v1.448c0 .78-.251 1.38-.753 1.798-.503.419-1.188.628-2.057.628" fill="#212121"/><path d="M19.85 61.535h-2.036c-.172 0-.296-.038-.373-.117-.077-.078-.115-.204-.115-.379v-8.933c0-.175.038-.302.115-.38.077-.077.201-.117.373-.117h1.412c.172 0 .318.028.44.083.123.055.243.152.36.29l2.634 3.06v-2.936c0-.175.038-.302.115-.38.077-.077.201-.117.373-.117h2.036c.172 0 .296.04.373.118.077.077.116.204.116.379v8.933c0 .175-.039.301-.116.38-.077.078-.201.116-.373.116h-2.036c-.172 0-.296-.038-.373-.117-.077-.078-.115-.204-.115-.379v-1.695l-2.321-2.855v4.55c0 .175-.04.301-.116.38-.077.078-.201.116-.373.116M32.5 61.535h-2.2c-.172 0-.296-.038-.373-.117-.077-.078-.115-.204-.115-.379v-1.765l-2.076-2.826c-.209-.285-.346-.533-.415-.744-.068-.211-.102-.529-.102-.951v-2.647c0-.175.039-.302.116-.38.076-.077.201-.117.373-.117h2.09c.172 0 .297.04.374.118.076.077.115.204.115.379v2.26c0 .092.005.19.014.29a.598.598 0 0 0 .108.29l.625.992a.54.54 0 0 0 .142.18c.05.036.11.055.183.055h.136a.3.3 0 0 0 .183-.056.551.551 0 0 0 .143-.179l.624-.992a.603.603 0 0 0 .109-.29c.008-.1.013-.198.013-.29v-2.26c0-.175.039-.302.116-.38.076-.077.2-.117.373-.117h2.022c.172 0 .296.04.373.118.077.077.116.204.116.379v2.647c0 .422-.037.74-.109.95-.073.212-.208.46-.407.745l-2.063 2.84v1.751c0 .175-.039.301-.115.38-.077.078-.202.116-.374.116M43.615 61.535h-3.311c-1.131 0-1.971-.23-2.518-.689-.548-.46-.821-1.167-.821-2.123v-4.288c0-.956.273-1.665.82-2.13.548-.463 1.388-.696 2.519-.696h3.311c.172 0 .296.04.373.118.077.077.116.204.116.379v1.668c0 .174-.039.3-.116.379-.077.078-.201.117-.373.117h-2.728c-.28 0-.488.058-.624.172-.136.115-.204.287-.204.517v3.281c0 .23.068.398.204.504.136.105.344.158.624.158h2.728c.172 0 .296.04.373.117.077.079.116.205.116.38v1.64c0 .175-.039.301-.116.38-.077.078-.201.116-.373.116" fill="#00F"/></g></svg>