<svg width="1440" height="883" viewBox="0 0 1440 883" xmlns="http://www.w3.org/2000/svg"><title>8092E30F-837A-4B2F-9BA8-88020A30EB8F</title><g fill="none" fill-rule="evenodd"><path d="M1489.576 546.232l129.195-11.303S1603-15.5 1493.5-15.5 1327 177 1195.5 177 964 83 780 83 494 230.5 347.5 230.5s-221.5-72-384.5-72c-93.742 0-136.39 163.46-145.995 309.521l-211.835 18.534s-72.105 431.692 36.934 422.153c109.039-9.54 154.812-127.819 287.604-127.819 132.792 0 418.994 101.712 598.643 101.712s355.828-113.73 499.488-113.73C1171.5 768.87 1321 835 1476.5 835c88.646 0 61.91-151.517 13.076-288.768z" fill="#F5F8FA"/><path d="M1490.117 534.112l126.908-11.103s-12.34-511.214-121.78-510.534c-109.441.681-167.607 179.856-299.036 180.673-131.428.818-230.79-85.88-414.69-84.736-183.9 1.144-286.76 138.796-433.181 139.707-146.42.91-220.932-65.507-383.843-64.493-93.473.581-137.129 151.984-147.766 287.484l-209.966 18.37s-74.75 401.463 34.29 391.923c109.038-9.54 155.522-119.697 288.242-120.523 132.72-.826 418.133 91.879 597.684 90.762 179.552-1.117 356.342-107.86 499.924-108.754 143.583-.893 292.59 59.607 448.006 58.64 88.386-.55 62.941-140.463 15.207-267.416z" fill="#EFF3F5"/></g></svg>